{
 "cells": [
  {
   "cell_type": "code",
   "execution_count": 1,
   "metadata": {},
   "outputs": [],
   "source": [
    "# pip install pillow"
   ]
  },
  {
   "cell_type": "markdown",
   "metadata": {},
   "source": [
    "<h1 style=\"text-align:left; letter-spacing:2px; font-weight:700;\">\n",
    "Environment Setup\n",
    "</h1>"
   ]
  },
  {
   "cell_type": "code",
   "execution_count": 7,
   "metadata": {},
   "outputs": [],
   "source": [
    "import os\n",
    "import numpy as np\n",
    "import matplotlib.pyplot as plt\n",
    "from PIL import Image\n",
    "import subprocess\n",
    "import shutil\n",
    "import glob"
   ]
  },
  {
   "cell_type": "markdown",
   "metadata": {},
   "source": [
    "<h1 style=\"text-align:left; letter-spacing:2px; font-weight:700;\">\n",
    "Generate Example Animation Frames\n",
    "</h1>"
   ]
  },
  {
   "cell_type": "code",
   "execution_count": 17,
   "metadata": {},
   "outputs": [],
   "source": [
    "os.makedirs(\"Example_Images\", exist_ok=True)\n",
    "\n",
    "x = np.linspace(-5, 5, 40)\n",
    "y = np.linspace(-5, 5, 40)\n",
    "X, Y = np.meshgrid(x, y)\n",
    "R = np.sqrt(X**2 + Y**2)\n",
    "\n",
    "fig = plt.figure(figsize=(4, 3), dpi=50)\n",
    "ax = fig.add_subplot(111, projection='3d')\n",
    "\n",
    "for i in range(60):\n",
    "    ax.clear()\n",
    "    \n",
    "    phase = 2 * np.pi * (i / 60.0)\n",
    "    Z = np.sin(R - phase) * np.exp(-0.1 * R)\n",
    "    \n",
    "    ax.plot_surface(X, Y, Z, cmap='plasma', edgecolor='none')\n",
    "    \n",
    "    ax.set_zlim(-1, 1)\n",
    "    ax.set_axis_off()\n",
    "    \n",
    "    ax.view_init(elev=30, azim=i * 6)\n",
    "    \n",
    "    filename = os.path.join(\"Example_Images\", f\"frame_{i:02d}.png\")\n",
    "    plt.savefig(filename, dpi=50, transparent=True, bbox_inches='tight')\n",
    "\n",
    "plt.close(fig)"
   ]
  },
  {
   "cell_type": "markdown",
   "metadata": {},
   "source": [
    "<h1 style=\"text-align:left; letter-spacing:2px; font-weight:700;\">\n",
    "Render Transparent GIF\n",
    "</h1>"
   ]
  },
  {
   "cell_type": "code",
   "execution_count": 18,
   "metadata": {},
   "outputs": [],
   "source": [
    "image_folder = \"Example_Images\"\n",
    "png_files = sorted([os.path.join(image_folder, f) for f in os.listdir(image_folder) if f.endswith('.png')])\n",
    "frames = []\n",
    "for png_file in png_files:\n",
    "    img = Image.open(png_file).convert(\"RGBA\")\n",
    "    alpha = img.getchannel(\"A\")\n",
    "    img_rgb = Image.new(\"RGB\", img.size, (255, 255, 255))\n",
    "    img_rgb.paste(img, mask=alpha)\n",
    "    imgP = img_rgb.convert(\"P\", palette=Image.ADAPTIVE, colors=255, dither=Image.NONE)\n",
    "    mask = alpha.point(lambda p: 255 if p == 0 else 0)\n",
    "    imgP.paste(255, mask)\n",
    "    frames.append(imgP)\n",
    "frames[0].save(\"Transparent Movie.gif\", save_all=True, append_images=frames[1:], duration=60, loop=0, transparency=255, disposal=2, optimize=False)"
   ]
  },
  {
   "cell_type": "markdown",
   "metadata": {},
   "source": [
    "<h1 style=\"text-align:left; letter-spacing:2px; font-weight:700;\">\n",
    "Render Transparent MOV\n",
    "</h1>"
   ]
  },
  {
   "cell_type": "code",
   "execution_count": null,
   "metadata": {},
   "outputs": [
    {
     "name": "stderr",
     "output_type": "stream",
     "text": [
      "ffmpeg version 8.0.1 Copyright (c) 2000-2025 the FFmpeg developers\n",
      "  built with Apple clang version 17.0.0 (clang-1700.6.3.2)\n",
      "  configuration: --prefix=/opt/homebrew/Cellar/ffmpeg/8.0.1_1 --enable-shared --enable-pthreads --enable-version3 --cc=clang --host-cflags= --host-ldflags= --enable-ffplay --enable-gpl --enable-libsvtav1 --enable-libopus --enable-libx264 --enable-libmp3lame --enable-libdav1d --enable-libvpx --enable-libx265 --enable-videotoolbox --enable-audiotoolbox --enable-neon\n",
      "  libavutil      60.  8.100 / 60.  8.100\n",
      "  libavcodec     62. 11.100 / 62. 11.100\n",
      "  libavformat    62.  3.100 / 62.  3.100\n",
      "  libavdevice    62.  1.100 / 62.  1.100\n",
      "  libavfilter    11.  4.100 / 11.  4.100\n",
      "  libswscale      9.  1.100 /  9.  1.100\n",
      "  libswresample   6.  1.100 /  6.  1.100\n",
      "Input #0, image2, from 'Example_Images/_seq/frame_%04d.png':\n",
      "  Duration: 00:00:05.00, start: 0.000000, bitrate: N/A\n",
      "  Stream #0:0: Video: png, rgba(pc, gbr/unknown/unknown), 125x125 [SAR 1969:1969 DAR 1:1], 12 fps, 12 tbr, 12 tbn\n",
      "Stream mapping:\n",
      "  Stream #0:0 -> #0:0 (png (native) -> prores (prores_ks))\n",
      "Press [q] to stop, [?] for help\n",
      "Output #0, mov, to 'Transparent Movie.mov':\n",
      "  Metadata:\n",
      "    encoder         : Lavf62.3.100\n",
      "  Stream #0:0: Video: prores (4444) (ap4h / 0x68347061), yuva444p10le(tv, progressive), 125x125 [SAR 1:1 DAR 1:1], q=2-31, 200 kb/s, 12 fps, 12288 tbn\n",
      "    Metadata:\n",
      "      encoder         : Lavc62.11.100 prores_ks\n",
      "[out#0/mov @ 0xc7d00c6c0] video:1292KiB audio:0KiB subtitle:0KiB other streams:0KiB global headers:0KiB muxing overhead: 0.075385%\n",
      "frame=   60 fps=0.0 q=-0.0 Lsize=    1293KiB time=00:00:05.00 bitrate=2117.7kbits/s speed= 249x elapsed=0:00:00.02    \n"
     ]
    },
    {
     "data": {
      "text/plain": [
       "CompletedProcess(args=['ffmpeg', '-y', '-framerate', '12', '-i', 'Example_Images/_seq/frame_%04d.png', '-c:v', 'prores_ks', '-profile:v', '4', '-pix_fmt', 'yuva444p10le', 'Transparent Movie.mov'], returncode=0)"
      ]
     },
     "execution_count": 26,
     "metadata": {},
     "output_type": "execute_result"
    }
   ],
   "source": [
    "image_folder = \"Example_Images\"\n",
    "temp_folder = os.path.join(image_folder, \"_seq\")\n",
    "output_mov = \"Transparent Movie.mov\"\n",
    "\n",
    "if os.path.isdir(temp_folder):\n",
    "    shutil.rmtree(temp_folder)\n",
    "os.makedirs(temp_folder, exist_ok=True)\n",
    "\n",
    "files = sorted(glob.glob(os.path.join(image_folder, \"frame_*.png\")))\n",
    "\n",
    "i = 0\n",
    "for src in files:\n",
    "    dst = os.path.join(temp_folder, f\"frame_{i:04d}.png\")\n",
    "    shutil.copy2(src, dst)\n",
    "    i += 1\n",
    "\n",
    "cmd = [\n",
    "    \"ffmpeg\",\n",
    "    \"-y\",\n",
    "    \"-framerate\", \"12\", # Control the frame rate of the output video, 12 per second (fps) in this case.\n",
    "    \"-i\", os.path.join(temp_folder, \"frame_%04d.png\"),\n",
    "    \"-c:v\", \"prores_ks\",\n",
    "    \"-profile:v\", \"4\",\n",
    "    \"-pix_fmt\", \"yuva444p10le\",\n",
    "    output_mov\n",
    "]\n",
    "subprocess.run(cmd, check=True)"
   ]
  },
  {
   "cell_type": "code",
   "execution_count": null,
   "metadata": {},
   "outputs": [],
   "source": []
  },
  {
   "cell_type": "code",
   "execution_count": null,
   "metadata": {},
   "outputs": [],
   "source": []
  }
 ],
 "metadata": {
  "kernelspec": {
   "display_name": "Python 3",
   "language": "python",
   "name": "python3"
  },
  "language_info": {
   "codemirror_mode": {
    "name": "ipython",
    "version": 3
   },
   "file_extension": ".py",
   "mimetype": "text/x-python",
   "name": "python",
   "nbconvert_exporter": "python",
   "pygments_lexer": "ipython3",
   "version": "3.11.10"
  },
  "orig_nbformat": 4
 },
 "nbformat": 4,
 "nbformat_minor": 2
}
